<?xml version="1.0" standalone="no"?>
<!DOCTYPE svg PUBLIC "-//W3C//DTD SVG 20010904//EN"
 "http://www.w3.org/TR/2001/REC-SVG-20010904/DTD/svg10.dtd">
<svg version="1.0" xmlns="http://www.w3.org/2000/svg"
 width="700.000000pt" height="700.000000pt" viewBox="0 0 700.000000 700.000000"
 preserveAspectRatio="xMidYMid meet">
<metadata>
Created by potrace 1.14, written by Peter Selinger 2001-2017
</metadata>
<g transform="translate(0.000000,700.000000) scale(0.100000,-0.100000)"
fill="#000000" stroke="none">
<path d="M3280 6994 c-19 -2 -84 -9 -145 -14 -1123 -109 -2149 -794 -2708
-1807 -275 -498 -427 -1094 -427 -1673 0 -796 271 -1561 776 -2195 112 -141
387 -416 529 -529 527 -422 1144 -677 1830 -758 145 -17 576 -17 730 0 822 91
1570 456 2140 1043 829 855 1168 2050 909 3207 -112 503 -360 1014 -690 1427
-113 142 -390 419 -521 523 -545 431 -1119 673 -1793 758 -110 14 -556 27
-630 18z m685 -313 c920 -142 1709 -647 2220 -1421 118 -178 265 -454 265
-496 0 -11 -20 -14 -84 -14 -193 0 -513 -38 -760 -91 -584 -123 -1096 -371
-1694 -818 -129 -97 -161 -125 -152 -136 6 -7 46 -41 89 -74 l79 -60 123 92
c170 128 330 237 473 324 l121 73 3 -503 2 -503 103 -57 c57 -31 106 -57 110
-57 4 0 7 278 7 619 l0 619 119 51 c122 52 281 111 300 111 8 0 12 -237 13
-797 l3 -797 100 -32 c55 -18 103 -33 108 -33 4 -1 7 388 7 864 l0 864 38 11
c37 10 257 53 340 65 l42 7 0 -950 0 -949 88 -12 c49 -6 100 -11 115 -11 l27
0 0 973 0 974 113 6 c61 4 146 7 188 7 l76 0 41 -147 c96 -343 127 -590 119
-958 -5 -251 -16 -357 -58 -565 -24 -121 -97 -377 -132 -465 l-23 -60 -156 2
c-424 4 -911 107 -1318 278 -394 166 -700 363 -1336 862 -578 452 -855 641
-1204 818 -427 216 -870 351 -1360 414 -183 24 -393 41 -502 41 l-78 0 10 24
c25 66 129 269 191 371 321 533 780 958 1329 1231 367 182 688 274 1150 328
19 2 163 3 320 1 232 -2 311 -7 425 -24z m-3230 -2161 c586 -38 1068 -156
1537 -376 349 -164 653 -361 1118 -724 439 -342 559 -434 710 -539 440 -309
807 -490 1256 -621 264 -77 608 -134 887 -147 76 -3 140 -10 143 -14 8 -13
-110 -223 -211 -374 -127 -191 -245 -335 -405 -495 -531 -532 -1217 -855
-1969 -930 -133 -13 -469 -13 -602 0 -1073 106 -2007 725 -2528 1676 -34 61
-61 116 -61 123 0 7 24 11 68 11 91 0 275 16 457 40 682 89 1272 318 1875 728
178 121 373 263 367 268 -2 2 -43 35 -92 73 l-88 69 -91 -67 c-148 -110 -273
-194 -411 -278 -152 -93 -297 -173 -314 -173 -8 0 -11 140 -11 539 l0 539 -87
45 c-49 24 -98 48 -110 52 l-23 6 0 -646 0 -646 -52 -23 c-67 -30 -345 -126
-364 -126 -12 0 -14 121 -16 808 l-3 807 -75 21 c-41 12 -90 25 -107 29 l-33
7 0 -870 0 -870 -137 -26 c-130 -24 -259 -46 -275 -46 -5 0 -8 425 -8 944 0
891 -1 945 -17 950 -10 2 -49 8 -88 11 -38 3 -82 9 -97 11 l-28 6 0 -975 0
-975 -153 -7 c-84 -4 -162 -6 -172 -4 -47 10 -162 413 -212 744 -26 172 -26
678 0 849 26 174 52 292 99 459 l41 147 61 0 c34 0 133 -5 221 -10z"/>
</g>
</svg>
