<?xml version="1.0" encoding="UTF-8"?><svg id="Layer_1" xmlns="http://www.w3.org/2000/svg" viewBox="0 0 147 147"><defs><style>.cls-1{fill:none;}</style></defs><path class="cls-1" d="m74.27148,77.57617c-15.87653-12.50287-32.29791-25.41931-64.69769-25.70154-2.30475,6.79419-3.57379,14.06226-3.57379,21.62537,0,8.6853,1.66693,16.9837,4.66809,24.6167,2.49261-.04535,4.89014-.16583,7.20007-.35516v-40.81104c1.61932.13684,3.19495.30634,4.72266.51202v39.802c3.13037-.40552,6.09277-.9422,8.90332-1.5965v-36.53351c1.62695.39972,3.19781.8429,4.72266,1.32202v33.96515c3.14972-.93054,6.10699-2.00848,8.9043-3.20624v-27.32397c1.62415.74744,3.19574,1.53839,4.72266,2.36755v22.75775c6.40692-3.23315,11.9964-7.06598,17.29095-11.05682,1.284.99567,2.56561,2,3.8504,3.01172-14.27856,10.89954-30.41742,20.89984-58.29413,21.81433,10.92493,22.5929,34.07648,38.21399,60.80902,38.21399,26.72247,0,49.86621-15.6098,60.79614-38.1889-29.05554-.85107-44.79279-13.23853-60.02466-25.23492Z"/><path class="cls-1" d="m136.32904,98.12396c3.00299-7.63501,4.67096-15.93591,4.67096-24.62396,0-7.5675-1.27045-14.8396-3.57776-21.63715-2.74237.00208-5.35413.11041-7.85767.30762l-.02106,40.93536c-1.62274-.138-3.19525-.31866-4.72241-.53809l.02057-39.89972c-3.14636.41827-6.11261.98608-8.91492,1.69312v36.3717c-1.62506-.44354-3.20074-.93054-4.72266-1.46582v-33.53918c-3.14661,1.0235-6.0965,2.21729-8.8916,3.55249v26.14642c-1.6203-.83344-3.19116-1.71417-4.72266-2.63538v-21.05548c-5.41125,3.04248-10.31183,6.57568-15.13507,10.28754-.78345-.61407-1.5672-1.23053-2.35321-1.84961l-.00293-.00195c-.49005-.38599-.98083-.7724-1.47229-1.15875,14.21564-11.01392,29.89258-21.39777,57.01978-21.85266C125.3634,22.99078,101.37958,6,73.5,6c-27.88464,0-51.8725,16.99689-62.1521,41.17365,32.86072.7226,49.62378,13.91748,65.84546,26.69257,15.63562,12.31464,30.427,23.94696,59.13568,24.25775Z"/><path d="m134.29614,102.8111c.73999-1.52863,1.40759-3.09729,2.0329-4.68713-28.70868-.31079-43.50006-11.94312-59.13568-24.25775-16.22168-12.77509-32.98474-25.96997-65.84546-26.69257-.6532,1.53632-1.23413,3.10919-1.77411,4.70099,32.39978.28223,48.82117,13.19867,64.69769,25.70154,15.23187,11.9964,30.96912,24.38385,60.02466,25.23492Z"/><path d="m73.5,0C32.97168,0,0,32.97168,0,73.5s32.97168,73.5,73.5,73.5,73.5-32.97168,73.5-73.5S114.02832,0,73.5,0Zm0,141c-26.73254,0-49.88409-15.62109-60.80902-38.21399,27.87671-.91449,44.01556-10.91479,58.29413-21.81433-1.28479-1.01172-2.56641-2.01605-3.8504-3.01172-5.29456,3.99084-10.88403,7.82367-17.29095,11.05682v-22.75775c-1.52692-.82916-3.09851-1.62012-4.72266-2.36755v27.32397c-2.7973,1.19775-5.75458,2.2757-8.9043,3.20624v-33.96515c-1.52484-.47913-3.0957-.9223-4.72266-1.32202v36.53351c-2.81055.6543-5.77295,1.19098-8.90332,1.5965v-39.802c-1.52771-.20569-3.10333-.37518-4.72266-.51202v40.81104c-2.30994.18933-4.70746.30981-7.20007.35516-3.00116-7.633-4.66809-15.9314-4.66809-24.6167,0-7.56311,1.26904-14.83118,3.57379-21.62537.53998-1.5918,1.12091-3.16467,1.77411-4.70099C21.6275,22.99689,45.61536,6,73.5,6c27.87958,0,51.8634,16.99078,62.14612,41.16046-27.1272.4549-42.80414,10.83875-57.01978,21.85266.49146.38635.98224.77277,1.47229,1.15875l.00293.00195c.78601.61908,1.56976,1.23553,2.35321,1.84961,4.82324-3.71185,9.72382-7.24506,15.13507-10.28754v21.05548c1.53149.9212,3.10236,1.80194,4.72266,2.63538v-26.14642c2.7951-1.33521,5.745-2.52899,8.8916-3.55249v33.53918c1.52191.53528,3.0976,1.02228,4.72266,1.46582v-36.3717c2.80231-.70703,5.76855-1.27484,8.91492-1.69312l-.02057,39.89972c1.52716.21942,3.09967.40009,4.72241.53809l.02106-40.93536c2.50354-.1972,5.1153-.30554,7.85767-.30762,2.30731,6.79755,3.57776,14.06964,3.57776,21.63715,0,8.68805-1.66797,16.98895-4.67096,24.62396-.62531,1.58984-1.29291,3.15851-2.0329,4.68713-10.92993,22.5791-34.07367,38.1889-60.79614,38.1889Z"/></svg>